<?xml version="1.0" encoding="UTF-8" standalone="no"?>
<!-- Created with Inkscape (http://www.inkscape.org/) -->
<svg
   xmlns:dc="http://purl.org/dc/elements/1.1/"
   xmlns:cc="http://creativecommons.org/ns#"
   xmlns:rdf="http://www.w3.org/1999/02/22-rdf-syntax-ns#"
   xmlns:svg="http://www.w3.org/2000/svg"
   xmlns="http://www.w3.org/2000/svg"
   xmlns:sodipodi="http://sodipodi.sourceforge.net/DTD/sodipodi-0.dtd"
   xmlns:inkscape="http://www.inkscape.org/namespaces/inkscape"
   width="744.09448819"
   height="1052.3622047"
   id="svg2"
   sodipodi:version="0.32"
   inkscape:version="0.46"
   sodipodi:docname="Grave_Accent.svg"
   inkscape:output_extension="org.inkscape.output.svg.inkscape">
  <defs
     id="defs4">
    <inkscape:perspective
       sodipodi:type="inkscape:persp3d"
       inkscape:vp_x="0 : 526.18109 : 1"
       inkscape:vp_y="0 : 1000 : 0"
       inkscape:vp_z="744.09448 : 526.18109 : 1"
       inkscape:persp3d-origin="372.04724 : 350.78739 : 1"
       id="perspective10" />
  </defs>
  <sodipodi:namedview
     id="base"
     pagecolor="#ffffff"
     bordercolor="#000"
     borderopacity="1"
     gridtolerance="10000"
     guidetolerance="10"
     objecttolerance="10"
     inkscape:pageopacity="0.0"
     inkscape:pageshadow="2"
     inkscape:zoom="0.49497475"
     inkscape:cx="393.917"
     inkscape:cy="268.40713"
     inkscape:document-units="px"
     inkscape:current-layer="layer1"
     showgrid="false"
     inkscape:window-width="675"
     inkscape:window-height="722"
     inkscape:window-x="691"
     inkscape:window-y="107" />
  <metadata
     id="metadata7">
    <rdf:RDF>
      <cc:Work
         rdf:about="">
        <dc:format>image/svg+xml</dc:format>
        <dc:type
           rdf:resource="http://purl.org/dc/dcmitype/StillImage" />
      </cc:Work>
    </rdf:RDF>
  </metadata>
  <g
     inkscape:label="Layer 1"
     inkscape:groupmode="layer"
     id="layer1">
<path
  d="M 194,313.36218 C 195.9998,312.69626 213.99979,312.36292 248,312.36218 C 284.66638,312.36292 305.99969,313.36292 312,315.36218 C 317.33302,317.36292 322.66634,320.69625 328,325.36218 C 330.66634,328.02957 363.6663,370.02953 427,451.36218 C 489.66618,532.02937 521.99948,573.36266 524,575.36218 C 525.33281,578.02932 526.66614,580.69599 528,583.36218 C 533.99947,598.69597 532.66613,613.36262 524,627.36218 L 513,639.36218 C 510.33282,641.36259 507.66616,643.02926 505,644.36218 C 498.33283,647.69592 490.99951,649.36259 483,649.36218 C 472.99953,649.36259 463.99954,646.36259 456,640.36218 C 453.33288,639.02926 404.66626,597.69597 310,516.36218 C 215.33312,435.02947 166.6665,393.02951 164,390.36218 C 155.33318,379.69619 151.99985,367.02953 154,352.36218 C 154.66651,347.69622 156.33318,343.36289 159,339.36218 C 165.6665,324.69624 177.33316,316.02959 194,313.36218"
  fill="#ffffff"
  stroke="#000000"
  stroke-width="4"
/>
  </g>
</svg>
