<?xml version="1.0" encoding="UTF-8" standalone="no"?>
<svg
   viewBox="0 0 810 810"
   version="1.1"
   id="svg61"
   sodipodi:docname="logoloading.svg"
   inkscape:version="1.4.2 (f4327f4, 2025-05-13)"
   xmlns:inkscape="http://www.inkscape.org/namespaces/inkscape"
   xmlns:sodipodi="http://sodipodi.sourceforge.net/DTD/sodipodi-0.dtd"
   xmlns="http://www.w3.org/2000/svg"
   xmlns:svg="http://www.w3.org/2000/svg">
  <sodipodi:namedview
     id="namedview61"
     pagecolor="#ffffff"
     bordercolor="#000000"
     borderopacity="0.25"
     inkscape:showpageshadow="2"
     inkscape:pageopacity="0.0"
     inkscape:pagecheckerboard="0"
     inkscape:deskcolor="#d1d1d1"
     inkscape:zoom="0.93703704"
     inkscape:cx="404.4664"
     inkscape:cy="319.62451"
     inkscape:window-width="1920"
     inkscape:window-height="1004"
     inkscape:window-x="-8"
     inkscape:window-y="-8"
     inkscape:window-maximized="1"
     inkscape:current-layer="Capa_7" />
  <defs
     id="defs1">
    <style
       id="style1">
      .cls-1, .cls-2 {
        font-size: 131.7px;
        stroke-width: 2px;
      }

      .cls-1, .cls-2, .cls-3 {
        stroke: #000;
        stroke-miterlimit: 10;
      }

      .cls-1, .cls-4 {
        font-family: MyriadPro-Regular, 'Myriad Pro';
      }

      .cls-2, .cls-3, .cls-5 {
        font-family: MirrenBcb-Regular, 'Mirren Bcb';
      }

      .cls-3 {
        stroke-width: .75px;
      }

      .cls-3, .cls-4, .cls-5 {
        font-size: 86px;
      }

      .cls-6 {
        fill: #327339;
      }

      .cls-4 {
        fill: none;
      }
    </style>
  </defs>
  <g
     id="Capa_6"
     data-name="Capa 6">
    <g
       id="g26">
      <text
         class="cls-2"
         transform="translate(457.15 182.08) rotate(16.52)"
         id="text8"><tspan
           x="0"
           y="0"
           id="tspan8" /></text>
      <text
         class="cls-5"
         transform="translate(287.8 686.97) rotate(21.04)"
         id="text17"><tspan
           x="0"
           y="0"
           id="tspan17" /></text>
      <text
         class="cls-5"
         transform="translate(407.9 710.72) rotate(-2.69)"
         id="text20"><tspan
           x="0"
           y="0"
           id="tspan20" /></text>
      <text
         class="cls-3"
         transform="translate(619.21 619.1) rotate(-48.28)"
         id="text25"><tspan
           x="0"
           y="0"
           id="tspan25" /></text>
      <text
         class="cls-4"
         transform="translate(644.46 595.53) rotate(-54.45)"
         id="text26"><tspan
           x="0"
           y="0"
           id="tspan26">.</tspan></text>
    </g>
  </g>
  <g
     id="Capa_7"
     data-name="Capa 7"
     transform="translate(-8.5375494,-9.6047431)">
    <g
       id="g61"
       transform="matrix(2.3330827,0,0,2.3330827,-534.38762,-547.27588)">
      <path
         d="m 368.51,334.27 c 0.25,0.64 0.43,1.32 0.76,1.93 2.9,5.31 5.79,10.62 8.76,15.89 0.81,1.44 0.69,2.56 -0.32,3.83 -8.24,10.42 -16.44,20.87 -24.68,31.29 -1.99,2.52 -2.01,2.62 0.34,4.94 1.8,1.77 3.69,3.46 5.33,5.37 0.77,0.9 1.43,2.22 1.46,3.37 0.14,5.94 0.04,11.89 0.08,17.84 0,1.61 -0.58,2.32 -2.28,2.31 -12.84,-0.04 -25.69,0 -38.53,-0.01 -2.03,0 -2.19,-0.2 -2.19,-2.42 0,-25.41 0,-50.82 0.01,-76.23 0,-3.25 -0.08,-6.51 0.07,-9.76 0.05,-1.02 0.48,-2.26 1.17,-2.99 3.72,-3.96 7.53,-7.85 11.42,-11.64 0.67,-0.65 1.89,-1.03 2.86,-1.04 10.6,-0.06 21.2,0 31.8,-0.01 9.31,0 18.62,-0.04 27.93,-0.06 8.18,-0.01 16.16,1.12 23.95,3.75 7.53,2.54 14.15,6.42 19.62,12.2 4.83,5.11 8.06,11.17 10.11,17.83 2.2,7.17 4.44,14.35 6.23,21.63 1.99,8.1 3.7,16.29 5.12,24.51 1.51,8.72 2.65,17.51 3.72,26.3 0.68,5.56 0.96,11.17 1.36,16.76 0.14,2.01 -0.12,2.18 -2.37,2.18 -18.96,0 -37.92,-0.02 -56.88,-0.02 -12.51,0 -25.02,0.02 -37.53,0.01 -2.37,0 -2.52,-0.24 -2.17,-2.53 1.25,-8.14 2.46,-16.29 3.73,-24.43 1.75,-11.3 3.54,-22.59 5.31,-33.88 0.25,-1.61 0.62,-3.21 0.67,-4.83 0.14,-4.83 2.94,-8.33 5.64,-11.92 2.09,-2.78 4.1,-5.61 6.2,-8.38 0.91,-1.2 0.8,-2.2 -0.13,-3.31 -4.89,-5.77 -9.76,-11.57 -14.65,-17.34 -0.44,-0.52 -1.03,-0.92 -1.55,-1.37 -0.12,0.08 -0.25,0.17 -0.37,0.25 z m -25.46,24.46 c 0.21,0.03 0.43,0.06 0.64,0.09 1.67,-2.69 3.33,-5.38 5.02,-8.06 0.82,-1.3 0.46,-2.3 -0.64,-3.21 -1.12,-0.93 -2.17,-1.93 -3.3,-2.85 -0.44,-0.36 -1.02,-0.56 -1.53,-0.83 -0.2,0.61 -0.58,1.21 -0.59,1.82 -0.04,3.85 0,7.71 0.04,11.56 0,0.49 0.23,0.98 0.36,1.47 z"
         id="path26" />
      <path
         d="m 492.43,435.47 c 0.11,-1.9 -0.74,-2.6 -2.46,-2.69 -2.52,-0.14 -5.03,-0.39 -7.55,-0.51 -1.39,-0.07 -2.04,-0.72 -2.08,-2.08 -0.03,-1.24 -0.13,-2.49 -0.16,-3.73 -0.03,-1.14 0.91,-2 2.05,-1.92 2.57,0.18 5.15,0.35 7.72,0.6 1.23,0.12 2.18,-0.77 2.13,-2 -0.23,-5.24 -0.35,-10.49 -0.5,-15.74 -0.06,-2.09 -0.34,-2.37 -2.39,-2.11 -2.97,0.38 -5.94,0.77 -8.91,1.21 -0.99,0.15 -1.9,-0.54 -2.04,-1.52 -0.18,-1.28 -0.33,-2.56 -0.54,-3.83 -0.24,-1.45 0.42,-2.03 1.8,-2.19 3.29,-0.39 6.55,-0.95 9.84,-1.26 1.61,-0.15 2.11,-0.83 2.07,-2.35 -0.15,-5.49 -0.22,-10.99 -0.35,-16.49 -0.06,-2.4 -0.45,-2.62 -2.73,-1.8 -3.96,1.41 -7.94,2.77 -11.91,4.16 -1.1,0.38 -1.82,0.1 -2.02,-1.19 -0.2,-1.36 -0.46,-2.71 -0.76,-4.05 -0.32,-1.47 0.19,-2.21 1.64,-2.67 4.54,-1.43 9.03,-3.03 13.56,-4.5 1.42,-0.46 1.96,-1.27 1.81,-2.74 -0.64,-6.3 -1.19,-12.62 -1.87,-18.92 -0.26,-2.36 -0.82,-2.5 -2.93,-1.23 -5.04,3.05 -10.1,6.05 -15.13,9.1 -1.19,0.72 -1.89,0.43 -2.27,-0.83 -0.29,-0.96 -0.49,-1.96 -0.81,-2.91 -0.89,-2.72 -0.68,-3.11 1.77,-4.55 5.31,-3.12 10.57,-6.33 15.87,-9.48 0.98,-0.58 1.47,-1.3 1.21,-2.48 -1.6,-7.23 -3.61,-14.34 -6.4,-21.2 -0.55,-1.34 -1.89,-1.62 -2.95,-0.63 -5.05,4.7 -10.09,9.4 -15.14,14.1 -1.27,1.18 -1.85,1.06 -2.64,-0.5 -0.45,-0.9 -0.85,-1.83 -1.33,-2.72 -1.37,-2.53 -1.37,-2.51 0.77,-4.48 5.2,-4.78 10.37,-9.59 15.59,-14.35 0.89,-0.81 1.08,-1.54 0.5,-2.64 -3.65,-7 -8.28,-13.32 -13.48,-19.23 -1.39,-1.58 -1.85,-1.53 -3.06,0.18 -4.68,6.58 -9.36,13.15 -14.05,19.72 -2.11,2.95 -1.82,3.38 -5.25,0.96 -3.46,-2.44 -3.45,-2.31 -0.87,-5.85 4.85,-6.66 9.63,-13.37 14.4,-20.09 1.42,-1.99 1.33,-2.35 -0.57,-3.82 -6.1,-4.71 -12.63,-8.72 -19.64,-11.95 -1.45,-0.67 -2.32,-0.36 -2.93,1.07 -1.31,3.09 -2.64,6.17 -3.99,9.24 -2.93,6.67 -5.98,13.28 -8.81,19.99 -3.5,8.31 -4.26,13.29 -5.3,16.6 -0.14,0.45 0.11,0.91 0.56,1.04 2.55,0.74 10.46,3.09 14.64,5.03 9.81,4.55 17.64,11.44 23.14,20.81 3.06,5.2 5.12,10.84 6.67,16.64 2.66,10.01 5.39,20.02 7.75,30.11 1.53,6.54 2.6,13.2 3.61,19.85 1.1,7.2 2.01,14.44 2.79,21.68 0.55,5.13 0.73,10.29 1.08,15.44 0.1,1.49 1.06,1.99 3.59,1.99 2.53,0 13.73,-0.02 13.73,-0.02 0,0 3.98,0.33 3.69,-1.71 -0.21,-1.5 -0.23,-3.01 -0.14,-4.52 z"
         id="path27" />
      <g
         id="g29">
        <polygon
           class="cls-6"
           points="416.06,258.86 412.46,243.22 398.75,243.22 394.52,263.18 405.42,257.21 401.61,267.03 392.94,270.63 389.04,289.04 404.63,289.04 "
           id="polygon27" />
        <polygon
           class="cls-6"
           points="388.23,254.17 380.18,243.22 369.81,243.22 359.44,243.22 351.39,254.17 358.78,289.04 369.81,289.04 380.84,289.04 "
           id="polygon28" />
        <polygon
           class="cls-6"
           points="323.57,258.86 327.16,243.22 340.87,243.22 345.1,263.18 334.21,257.21 338.01,267.03 346.68,270.63 350.58,289.04 335,289.04 "
           id="polygon29" />
      </g>
      <g
         id="g42">
        <rect
           x="317.23999"
           y="467.10001"
           width="12.54"
           height="12.62"
           id="rect29" />
        <rect
           x="342.31"
           y="467.10001"
           width="12.54"
           height="12.62"
           id="rect30" />
        <rect
           x="367.39001"
           y="467.10001"
           width="12.54"
           height="12.62"
           id="rect31" />
        <rect
           x="392.45999"
           y="467.10001"
           width="12.54"
           height="12.62"
           id="rect32" />
        <rect
           x="417.54001"
           y="467.10001"
           width="12.54"
           height="12.62"
           id="rect33" />
        <rect
           x="442.60999"
           y="467.10001"
           width="12.54"
           height="12.62"
           id="rect34" />
        <rect
           x="467.69"
           y="467.10001"
           width="12.54"
           height="12.62"
           id="rect35" />
        <rect
           x="329.76999"
           y="454.48001"
           width="12.54"
           height="12.62"
           id="rect36" />
        <rect
           x="354.85001"
           y="454.48001"
           width="12.54"
           height="12.62"
           id="rect37" />
        <rect
           x="379.92001"
           y="454.48001"
           width="12.54"
           height="12.62"
           id="rect38" />
        <rect
           x="405"
           y="454.48001"
           width="12.54"
           height="12.62"
           id="rect39" />
        <rect
           x="430.07999"
           y="454.48001"
           width="12.54"
           height="12.62"
           id="rect40" />
        <rect
           x="455.14999"
           y="454.48001"
           width="12.54"
           height="12.62"
           id="rect41" />
        <rect
           x="480.23001"
           y="454.48001"
           width="12.54"
           height="12.62"
           id="rect42" />
      </g>
      <g
         id="g56">
        <rect
           x="317.23999"
           y="570.92999"
           width="12.54"
           height="12.62"
           id="rect43" />
        <rect
           x="342.31"
           y="570.92999"
           width="12.54"
           height="12.62"
           id="rect44" />
        <rect
           x="367.39001"
           y="570.92999"
           width="12.54"
           height="12.62"
           id="rect45" />
        <rect
           x="392.45999"
           y="570.92999"
           width="12.54"
           height="12.62"
           id="rect46" />
        <rect
           x="417.54001"
           y="570.92999"
           width="12.54"
           height="12.62"
           id="rect47" />
        <rect
           x="442.60999"
           y="570.92999"
           width="12.54"
           height="12.62"
           id="rect48" />
        <rect
           x="467.69"
           y="570.92999"
           width="12.54"
           height="12.62"
           id="rect49" />
        <rect
           x="329.76999"
           y="558.31"
           width="12.54"
           height="12.62"
           id="rect50" />
        <rect
           x="354.85001"
           y="558.31"
           width="12.54"
           height="12.62"
           id="rect51" />
        <rect
           x="379.92001"
           y="558.31"
           width="12.54"
           height="12.62"
           id="rect52" />
        <rect
           x="405"
           y="558.31"
           width="12.54"
           height="12.62"
           id="rect53" />
        <rect
           x="430.07999"
           y="558.31"
           width="12.54"
           height="12.62"
           id="rect54" />
        <rect
           x="455.14999"
           y="558.31"
           width="12.54"
           height="12.62"
           id="rect55" />
        <rect
           x="480.23001"
           y="558.31"
           width="12.54"
           height="12.62"
           id="rect56" />
      </g>
      <polygon
         class="cls-6"
         points="336.06,308.42 333.98,292.24 404.63,292.24 402.55,308.42 "
         id="polygon56" />
      <g
         id="QkN2ic.tif">
        <g
           id="g60">
          <path
             class="cls-6"
             d="m 405.39,539 c 0,0.16 0.15,0.28 0.53,0.29 2.27,0.03 8.55,0.04 11.31,0.05 0.43,0 0.44,0 0.44,0.42 0,1.17 0,6.2 0,7.56 0,0.26 -0.06,0.37 -0.35,0.37 -3.18,-0.03 -6.37,-0.01 -9.55,-0.09 -2.11,-0.06 -4.18,-0.44 -6.09,-1.42 -1.79,-0.93 -3.02,-2.37 -3.7,-4.25 -0.32,-0.88 -0.51,-1.82 -0.74,-2.74 -0.06,-0.22 -0.13,-0.33 -0.37,-0.38 -2.44,-0.56 -4.58,-1.68 -6.36,-3.46 -1.75,-1.75 -2.92,-3.86 -3.75,-6.16 -0.96,-2.64 -1.44,-5.38 -1.7,-8.17 -0.22,-2.31 -0.25,-4.63 -0.24,-6.96 0.02,-2.53 -0.02,-5.06 0.11,-7.59 0.09,-1.8 0.36,-3.6 0.65,-5.39 0.33,-2.06 0.95,-4.06 1.84,-5.94 1,-2.11 2.36,-3.97 4.24,-5.4 1.66,-1.26 3.52,-2.03 5.55,-2.43 2.33,-0.46 4.67,-0.5 7.02,-0.18 2.24,0.3 4.34,1.02 6.19,2.34 1.77,1.26 3.12,2.89 4.15,4.8 0.99,1.84 1.63,3.8 2.09,5.83 0.78,3.42 0.96,6.9 0.99,10.39 0.02,2.32 0.03,4.64 -0.03,6.96 -0.1,3.76 -0.5,7.48 -1.7,11.07 -0.93,2.8 -2.3,5.33 -4.53,7.32 -1.5,1.34 -3.24,2.25 -5.18,2.79 -0.57,0.16 -0.85,0.21 -0.84,0.38 z m 2.06,-26.4 h -0.09 c 0,-1.45 0.01,-2.89 0,-4.34 -0.03,-2.16 -0.15,-4.31 -0.51,-6.44 -0.22,-1.31 -0.55,-2.59 -1.29,-3.72 -0.52,-0.79 -1.2,-1.38 -2.1,-1.68 -1.29,-0.44 -2.6,-0.43 -3.91,-0.15 -1.24,0.26 -2.14,1 -2.79,2.09 -0.61,1.03 -0.94,2.17 -1.1,3.33 -0.24,1.68 -0.41,3.37 -0.5,5.06 -0.09,1.75 -0.06,3.52 -0.06,5.27 0,3.74 -0.1,7.47 0.39,11.19 0.19,1.44 0.48,2.86 1.11,4.18 0.65,1.36 1.67,2.31 3.18,2.6 1.07,0.21 2.16,0.2 3.22,-0.07 0.75,-0.19 1.4,-0.57 1.94,-1.13 0.82,-0.84 1.24,-1.89 1.56,-2.98 0.55,-1.93 0.74,-3.93 0.82,-5.92 0.1,-2.42 0.11,-4.85 0.15,-7.27 z"
             id="path56" />
          <path
             class="cls-6"
             d="m 378.06,513.09 c 0,5 0,9.99 0,14.99 0,3.38 0,6.77 0,10.15 q 0,0.41 -0.41,0.41 c -3.12,0 -6.25,0 -9.37,0 q -0.42,0 -0.42,-0.43 c 0,-2.95 0,-5.89 0,-8.84 0,-1.98 0,-3.95 0,-5.93 0,-0.67 0.05,-0.63 -0.61,-0.53 -1.61,0.25 -3.19,0.57 -4.69,1.24 -2.02,0.9 -3.63,2.26 -4.75,4.17 -0.51,0.88 -0.94,1.81 -1.18,2.81 -0.04,0.18 -0.06,0.37 -0.06,0.55 0,2.19 0,4.37 0,6.56 0,0.31 -0.07,0.41 -0.39,0.41 -3.13,-0.01 -6.27,0 -9.4,0 q -0.42,0 -0.42,-0.43 c 0,-4.82 0,-9.64 0,-14.46 0,-3.94 -0.02,-7.89 0,-11.83 0.02,-3.82 0.52,-7.58 1.82,-11.19 0.61,-1.7 1.42,-3.3 2.44,-4.8 1.56,-2.28 3.52,-4.12 5.9,-5.51 1.67,-0.98 3.46,-1.69 5.34,-2.14 1.6,-0.38 3.23,-0.62 4.88,-0.67 0.69,-0.02 1.37,-0.03 2.06,-0.03 2.95,0 5.89,0 8.84,0 0.43,0 0.44,0 0.44,0.43 0,3.64 0,7.29 0,10.93 0,4.04 0,8.08 0,12.12 0,0.69 0,1.37 0,2.06 z m -21.47,7.23 c 0,0 0.08,0.06 0.12,0.08 0.04,-0.08 0.07,-0.18 0.13,-0.25 0.64,-0.7 1.25,-1.42 1.93,-2.08 1.11,-1.07 2.39,-1.91 3.79,-2.55 1.53,-0.7 3.14,-1.1 4.79,-1.34 0.51,-0.08 0.51,-0.08 0.51,-0.59 0,-2.45 -0.01,-4.89 -0.01,-7.34 0,-3.16 0,-6.33 0.01,-9.49 0,-0.39 -0.02,-0.4 -0.41,-0.4 -1.33,0.02 -2.63,0.17 -3.93,0.47 -2.65,0.61 -4.54,2.12 -5.58,4.66 -0.75,1.82 -1.06,3.74 -1.2,5.69 -0.11,1.58 -0.16,3.16 -0.17,4.74 -0.03,2.71 0,5.41 0,8.12 0,0.09 0.02,0.18 0.02,0.26 z"
             id="path57" />
          <path
             class="cls-6"
             d="m 456.13,513.11 v 14.96 c 0,3.38 0,6.77 0,10.15 0,0.42 0,0.42 -0.4,0.42 -3.51,0 -7.02,0.02 -10.52,-0.02 -2.68,-0.02 -5.28,-0.52 -7.78,-1.46 -2.97,-1.12 -5.5,-2.87 -7.55,-5.31 -1.97,-2.34 -3.28,-5.02 -4.13,-7.95 -0.99,-3.39 -1.32,-6.86 -1.32,-10.37 0,-4.12 0,-8.24 0,-12.37 0,-3.9 0,-7.81 0,-11.71 0,-0.53 0.02,-1.06 0,-1.59 0,-0.23 0.08,-0.31 0.31,-0.31 3.19,0 6.37,0 9.56,0 0.27,0 0.33,0.11 0.33,0.35 -0.01,0.71 0,1.42 0,2.12 0,3.55 0,7.1 0.01,10.65 0,3.74 -0.02,7.47 0,11.21 0.02,2.33 0.05,4.66 0.19,6.99 0.12,2.07 0.45,4.12 1.29,6.05 0.89,2.07 2.42,3.44 4.56,4.16 1.62,0.54 3.29,0.69 4.98,0.75 0.21,0 0.3,-0.06 0.3,-0.28 0,-2.1 0,-4.2 0,-6.31 0,-0.22 0,-0.44 0,-0.65 0,-3.23 0,-6.45 0,-9.68 0,-3.79 0,-7.58 0,-11.37 0,-3.83 0,-7.66 0,-11.49 0,-0.72 0.01,-1.44 0,-2.15 0,-0.27 0.1,-0.35 0.34,-0.34 0.2,0 0.4,0.01 0.59,0.01 2.95,0 5.89,0 8.84,0 0.42,0 0.42,0 0.42,0.41 0,2.56 0,5.12 0,7.68 v 17.46 z"
             id="path58" />
          <path
             class="cls-6"
             d="m 473.96,509.64 c 0.26,-0.25 0.51,-0.5 0.77,-0.75 1.01,-1 2.14,-1.86 3.39,-2.54 1.24,-0.67 2.56,-1.14 3.94,-1.45 1.64,-0.37 3.31,-0.51 4.99,-0.57 0.27,-0.01 0.33,0.09 0.33,0.34 0,2.09 0,4.18 0,6.28 0,0.59 0,1.19 0,1.78 0,0.23 -0.07,0.3 -0.3,0.32 -1.38,0.11 -2.76,0.17 -4.13,0.36 -2.22,0.31 -4.31,1.03 -6.14,2.37 -1.21,0.88 -2.14,2.02 -2.83,3.36 -0.07,0.13 -0.09,0.3 -0.09,0.45 0,3.04 0,6.08 0,9.12 0,0.32 0,0.65 -0.01,0.97 -0.01,0.22 0.09,0.28 0.3,0.28 1.87,0 3.75,0 5.62,0 3.2,0 6.39,0 9.59,0 0.25,0 0.32,0.08 0.32,0.32 0,2.69 0,5.37 0,8.06 0,0.26 -0.09,0.32 -0.33,0.32 -1.43,0 -2.85,0 -4.28,0 -5.28,0 -10.55,0 -15.83,0 -1.72,0 -3.43,0 -5.15,0 q -0.42,0 -0.42,-0.43 c 0,-2.98 0,-5.95 0,-8.93 0,-3.77 0,-7.54 0,-11.3 0,-3.71 0,-7.41 0,-11.12 0,-3.72 0,-7.43 0,-11.15 0,-2.57 0,-5.14 0,-7.71 0,-0.43 0,-0.43 0.43,-0.43 3.16,0 6.33,0 9.49,0 3.78,0 7.56,0 11.33,0 1.32,0 2.64,0 3.97,0 0.42,0 0.42,0 0.42,0.41 0,2.63 0,5.27 0,7.9 0,0.3 -0.09,0.39 -0.39,0.39 -1.31,-0.01 -2.62,0 -3.93,0 -3.34,0 -6.68,0 -10.02,0 -0.28,0 -0.56,0 -0.84,0 -0.21,0 -0.27,0.08 -0.27,0.28 0,1.33 0,2.66 0,4 0,0.72 0,1.44 0,2.15 0,2.19 0,4.37 0,6.56 v 0.37 c 0,0 0.06,0.02 0.08,0.03 z"
             id="path59" />
          <path
             class="cls-6"
             d="m 338.81,515.76 c 0,4.1 0,8.2 0,12.3 0,3.79 0,3.68 0,7.47 0,2.02 -0.04,4.04 -0.39,6.04 -0.47,2.75 -1.37,5.32 -3.27,7.44 -1.13,1.26 -2.5,2.16 -4.03,2.82 -1.93,0.83 -3.97,1.24 -6.05,1.4 -0.96,0.07 -4.96,0.05 -5.54,0.01 -0.58,-0.04 -0.51,-0.37 -0.51,-0.67 0.01,-1.72 0,-3.43 0,-5.15 0,-1.64 0.01,-3.29 0,-4.93 0,-0.34 0.12,-0.44 0.43,-0.49 1.1,0.17 4.61,0.18 5.51,-0.08 1.89,-0.54 3.2,-1.59 3.51,-3.98 0.1,-0.79 0.13,-1.6 0.13,-2.4 0.01,-3.4 0,-2.91 0,-6.32 0,-3.65 0,-7.31 0,-10.96 v -11.33 c 0,-3.75 0,-7.49 0,-11.24 0,-2.56 0,-5.12 0,-7.68 0,-0.46 0,-0.46 0.47,-0.46 3.09,0 6.18,0 9.27,0 0.45,0 0.45,0 0.45,0.44 0,4.01 0,8.01 0,12.02 0,3.74 0,7.47 0,11.21 0,1.51 0,3.02 0,4.53 z"
             id="path60" />
        </g>
      </g>
    </g>
  </g>
</svg>
